<mxfile host="Electron" agent="Mozilla/5.0 (Windows NT 10.0; Win64; x64) AppleWebKit/537.36 (KHTML, like Gecko) draw.io/28.2.7 Chrome/138.0.7204.251 Electron/37.7.1 Safari/537.36" version="28.2.7">
  <diagram name="Page-1" id="zw6fOnVvNEJQJ8MzUSi_">
    <mxGraphModel dx="1603" dy="2063" grid="1" gridSize="10" guides="1" tooltips="1" connect="1" arrows="1" fold="1" page="1" pageScale="1" pageWidth="850" pageHeight="1100" math="0" shadow="0">
      <root>
        <mxCell id="0" />
        <mxCell id="1" parent="0" />
        <mxCell id="bPnjTXjafhnAm1Io0pNq-4" value="Instructors" style="shape=umlActor;verticalLabelPosition=bottom;verticalAlign=top;html=1;outlineConnect=0;" vertex="1" parent="1">
          <mxGeometry x="1310" y="-50" width="30" height="60" as="geometry" />
        </mxCell>
        <mxCell id="bPnjTXjafhnAm1Io0pNq-5" value="Students&lt;div&gt;&lt;br&gt;&lt;/div&gt;" style="shape=umlActor;verticalLabelPosition=bottom;verticalAlign=top;html=1;outlineConnect=0;" vertex="1" parent="1">
          <mxGeometry x="60" y="200" width="30" height="60" as="geometry" />
        </mxCell>
        <mxCell id="bPnjTXjafhnAm1Io0pNq-20" value="" style="rounded=0;whiteSpace=wrap;html=1;" vertex="1" parent="1">
          <mxGeometry x="167.5" y="-150" width="1065" height="690" as="geometry" />
        </mxCell>
        <mxCell id="bPnjTXjafhnAm1Io0pNq-43" value="finish_lesson()" style="ellipse;whiteSpace=wrap;html=1;" vertex="1" parent="1">
          <mxGeometry x="700" y="320" width="120" height="50" as="geometry" />
        </mxCell>
        <mxCell id="bPnjTXjafhnAm1Io0pNq-44" value="enroll_course()" style="ellipse;whiteSpace=wrap;html=1;" vertex="1" parent="1">
          <mxGeometry x="460" y="280" width="120" height="50" as="geometry" />
        </mxCell>
        <mxCell id="bPnjTXjafhnAm1Io0pNq-45" value="&amp;nbsp;time_spent();" style="ellipse;whiteSpace=wrap;html=1;" vertex="1" parent="1">
          <mxGeometry x="710" y="390" width="120" height="50" as="geometry" />
        </mxCell>
        <mxCell id="bPnjTXjafhnAm1Io0pNq-46" value="browse_available_course()" style="ellipse;whiteSpace=wrap;html=1;" vertex="1" parent="1">
          <mxGeometry x="180" y="290" width="160" height="50" as="geometry" />
        </mxCell>
        <mxCell id="bPnjTXjafhnAm1Io0pNq-47" value="earn_certificate();" style="ellipse;whiteSpace=wrap;html=1;" vertex="1" parent="1">
          <mxGeometry x="710" y="170" width="120" height="50" as="geometry" />
        </mxCell>
        <mxCell id="bPnjTXjafhnAm1Io0pNq-48" value="&lt;br&gt;Do_quiz();" style="ellipse;whiteSpace=wrap;html=1;" vertex="1" parent="1">
          <mxGeometry x="700" y="240" width="120" height="50" as="geometry" />
        </mxCell>
        <mxCell id="bPnjTXjafhnAm1Io0pNq-51" value="QuizService" style="ellipse;whiteSpace=wrap;html=1;" vertex="1" parent="1">
          <mxGeometry x="1050" y="240" width="120" height="50" as="geometry" />
        </mxCell>
        <mxCell id="bPnjTXjafhnAm1Io0pNq-52" value="delete_lessons();" style="ellipse;whiteSpace=wrap;html=1;" vertex="1" parent="1">
          <mxGeometry x="1050" y="170" width="120" height="50" as="geometry" />
        </mxCell>
        <mxCell id="bPnjTXjafhnAm1Io0pNq-54" value="manage_courses();" style="ellipse;whiteSpace=wrap;html=1;" vertex="1" parent="1">
          <mxGeometry x="1050" y="390" width="120" height="50" as="geometry" />
        </mxCell>
        <mxCell id="bPnjTXjafhnAm1Io0pNq-55" value="Logout" style="ellipse;whiteSpace=wrap;html=1;" vertex="1" parent="1">
          <mxGeometry x="690" y="-32.5" width="120" height="50" as="geometry" />
        </mxCell>
        <mxCell id="bPnjTXjafhnAm1Io0pNq-56" value="Login" style="ellipse;whiteSpace=wrap;html=1;" vertex="1" parent="1">
          <mxGeometry x="630" y="40" width="120" height="47.5" as="geometry" />
        </mxCell>
        <mxCell id="bPnjTXjafhnAm1Io0pNq-62" value="" style="endArrow=none;dashed=1;html=1;rounded=0;exitX=1;exitY=0;exitDx=0;exitDy=0;" edge="1" parent="1" source="bPnjTXjafhnAm1Io0pNq-44" target="bPnjTXjafhnAm1Io0pNq-48">
          <mxGeometry width="50" height="50" relative="1" as="geometry">
            <mxPoint x="600" y="580" as="sourcePoint" />
            <mxPoint x="650" y="530" as="targetPoint" />
          </mxGeometry>
        </mxCell>
        <mxCell id="bPnjTXjafhnAm1Io0pNq-120" value="Include" style="edgeLabel;html=1;align=center;verticalAlign=middle;resizable=0;points=[];" vertex="1" connectable="0" parent="bPnjTXjafhnAm1Io0pNq-62">
          <mxGeometry x="-0.1963" y="1" relative="1" as="geometry">
            <mxPoint as="offset" />
          </mxGeometry>
        </mxCell>
        <mxCell id="bPnjTXjafhnAm1Io0pNq-63" value="" style="endArrow=none;dashed=1;html=1;rounded=0;exitX=0.5;exitY=1;exitDx=0;exitDy=0;" edge="1" parent="1" source="bPnjTXjafhnAm1Io0pNq-44" target="bPnjTXjafhnAm1Io0pNq-45">
          <mxGeometry width="50" height="50" relative="1" as="geometry">
            <mxPoint x="100" y="690" as="sourcePoint" />
            <mxPoint x="240" y="410" as="targetPoint" />
          </mxGeometry>
        </mxCell>
        <mxCell id="bPnjTXjafhnAm1Io0pNq-114" value="Include" style="edgeLabel;html=1;align=center;verticalAlign=middle;resizable=0;points=[];" vertex="1" connectable="0" parent="bPnjTXjafhnAm1Io0pNq-63">
          <mxGeometry x="0.2448" y="2" relative="1" as="geometry">
            <mxPoint x="1" as="offset" />
          </mxGeometry>
        </mxCell>
        <mxCell id="bPnjTXjafhnAm1Io0pNq-64" value="" style="endArrow=none;html=1;rounded=0;exitX=1;exitY=1;exitDx=0;exitDy=0;exitPerimeter=0;" edge="1" parent="1" source="bPnjTXjafhnAm1Io0pNq-5" target="bPnjTXjafhnAm1Io0pNq-46">
          <mxGeometry width="50" height="50" relative="1" as="geometry">
            <mxPoint x="80" y="70" as="sourcePoint" />
            <mxPoint x="240" y="410" as="targetPoint" />
          </mxGeometry>
        </mxCell>
        <mxCell id="bPnjTXjafhnAm1Io0pNq-65" value="" style="endArrow=none;dashed=1;html=1;rounded=0;entryX=0.051;entryY=0.714;entryDx=0;entryDy=0;entryPerimeter=0;exitX=0.5;exitY=0;exitDx=0;exitDy=0;" edge="1" parent="1" source="bPnjTXjafhnAm1Io0pNq-44" target="bPnjTXjafhnAm1Io0pNq-47">
          <mxGeometry width="50" height="50" relative="1" as="geometry">
            <mxPoint x="130" y="470" as="sourcePoint" />
            <mxPoint x="250" y="220" as="targetPoint" />
          </mxGeometry>
        </mxCell>
        <mxCell id="bPnjTXjafhnAm1Io0pNq-121" value="Include" style="edgeLabel;html=1;align=center;verticalAlign=middle;resizable=0;points=[];" vertex="1" connectable="0" parent="bPnjTXjafhnAm1Io0pNq-65">
          <mxGeometry x="0.1136" y="1" relative="1" as="geometry">
            <mxPoint as="offset" />
          </mxGeometry>
        </mxCell>
        <mxCell id="bPnjTXjafhnAm1Io0pNq-66" value="" style="endArrow=none;dashed=1;html=1;rounded=0;exitX=1;exitY=0;exitDx=0;exitDy=0;entryX=0;entryY=1;entryDx=0;entryDy=0;" edge="1" parent="1" source="bPnjTXjafhnAm1Io0pNq-46" target="bPnjTXjafhnAm1Io0pNq-125">
          <mxGeometry width="50" height="50" relative="1" as="geometry">
            <mxPoint x="70" y="980" as="sourcePoint" />
            <mxPoint x="210" y="700" as="targetPoint" />
          </mxGeometry>
        </mxCell>
        <mxCell id="bPnjTXjafhnAm1Io0pNq-101" value="Include" style="edgeLabel;html=1;align=center;verticalAlign=middle;resizable=0;points=[];" vertex="1" connectable="0" parent="bPnjTXjafhnAm1Io0pNq-66">
          <mxGeometry x="0.1044" y="-4" relative="1" as="geometry">
            <mxPoint as="offset" />
          </mxGeometry>
        </mxCell>
        <mxCell id="bPnjTXjafhnAm1Io0pNq-67" value="" style="endArrow=none;dashed=1;html=1;rounded=0;exitX=1;exitY=1;exitDx=0;exitDy=0;" edge="1" parent="1" source="bPnjTXjafhnAm1Io0pNq-44" target="bPnjTXjafhnAm1Io0pNq-43">
          <mxGeometry width="50" height="50" relative="1" as="geometry">
            <mxPoint x="110" y="440" as="sourcePoint" />
            <mxPoint x="250" y="470" as="targetPoint" />
          </mxGeometry>
        </mxCell>
        <mxCell id="bPnjTXjafhnAm1Io0pNq-119" value="Include" style="edgeLabel;html=1;align=center;verticalAlign=middle;resizable=0;points=[];" vertex="1" connectable="0" parent="bPnjTXjafhnAm1Io0pNq-67">
          <mxGeometry x="-0.1571" y="1" relative="1" as="geometry">
            <mxPoint as="offset" />
          </mxGeometry>
        </mxCell>
        <mxCell id="bPnjTXjafhnAm1Io0pNq-72" value="" style="endArrow=none;html=1;rounded=0;exitX=1;exitY=1;exitDx=0;exitDy=0;exitPerimeter=0;entryX=0;entryY=0.5;entryDx=0;entryDy=0;" edge="1" parent="1" source="bPnjTXjafhnAm1Io0pNq-5" target="bPnjTXjafhnAm1Io0pNq-56">
          <mxGeometry width="50" height="50" relative="1" as="geometry">
            <mxPoint x="600" y="550" as="sourcePoint" />
            <mxPoint x="650" y="500" as="targetPoint" />
          </mxGeometry>
        </mxCell>
        <mxCell id="bPnjTXjafhnAm1Io0pNq-75" value="" style="endArrow=none;html=1;rounded=0;exitX=1;exitY=0.5;exitDx=0;exitDy=0;entryX=0;entryY=1;entryDx=0;entryDy=0;entryPerimeter=0;" edge="1" parent="1" source="bPnjTXjafhnAm1Io0pNq-56" target="bPnjTXjafhnAm1Io0pNq-4">
          <mxGeometry width="50" height="50" relative="1" as="geometry">
            <mxPoint x="80" y="890" as="sourcePoint" />
            <mxPoint x="390" y="891" as="targetPoint" />
          </mxGeometry>
        </mxCell>
        <mxCell id="bPnjTXjafhnAm1Io0pNq-76" value="" style="endArrow=none;html=1;rounded=0;entryX=0;entryY=0;entryDx=0;entryDy=0;exitX=1;exitY=1;exitDx=0;exitDy=0;exitPerimeter=0;" edge="1" parent="1" source="bPnjTXjafhnAm1Io0pNq-129" target="bPnjTXjafhnAm1Io0pNq-56">
          <mxGeometry width="50" height="50" relative="1" as="geometry">
            <mxPoint x="480" y="-140" as="sourcePoint" />
            <mxPoint x="390" y="891" as="targetPoint" />
          </mxGeometry>
        </mxCell>
        <mxCell id="bPnjTXjafhnAm1Io0pNq-77" value="" style="endArrow=none;html=1;rounded=0;exitX=1;exitY=0.5;exitDx=0;exitDy=0;entryX=0;entryY=1;entryDx=0;entryDy=0;entryPerimeter=0;" edge="1" parent="1" source="bPnjTXjafhnAm1Io0pNq-84" target="bPnjTXjafhnAm1Io0pNq-4">
          <mxGeometry width="50" height="50" relative="1" as="geometry">
            <mxPoint x="590" y="600" as="sourcePoint" />
            <mxPoint x="900" y="601" as="targetPoint" />
          </mxGeometry>
        </mxCell>
        <mxCell id="bPnjTXjafhnAm1Io0pNq-78" value="" style="endArrow=none;html=1;rounded=0;exitX=1;exitY=1;exitDx=0;exitDy=0;exitPerimeter=0;entryX=0;entryY=0;entryDx=0;entryDy=0;" edge="1" parent="1" source="bPnjTXjafhnAm1Io0pNq-5" target="bPnjTXjafhnAm1Io0pNq-55">
          <mxGeometry width="50" height="50" relative="1" as="geometry">
            <mxPoint x="210" y="850" as="sourcePoint" />
            <mxPoint x="520" y="851" as="targetPoint" />
          </mxGeometry>
        </mxCell>
        <mxCell id="bPnjTXjafhnAm1Io0pNq-79" value="" style="endArrow=none;html=1;rounded=0;exitX=1;exitY=1;exitDx=0;exitDy=0;exitPerimeter=0;" edge="1" parent="1" source="bPnjTXjafhnAm1Io0pNq-129" target="bPnjTXjafhnAm1Io0pNq-55">
          <mxGeometry width="50" height="50" relative="1" as="geometry">
            <mxPoint x="89.99999999999977" y="690" as="sourcePoint" />
            <mxPoint x="480" y="731" as="targetPoint" />
          </mxGeometry>
        </mxCell>
        <mxCell id="bPnjTXjafhnAm1Io0pNq-85" value="" style="endArrow=none;html=1;rounded=0;exitX=0;exitY=1;exitDx=0;exitDy=0;entryX=1;entryY=0.5;entryDx=0;entryDy=0;exitPerimeter=0;" edge="1" parent="1" source="bPnjTXjafhnAm1Io0pNq-4" target="bPnjTXjafhnAm1Io0pNq-84">
          <mxGeometry width="50" height="50" relative="1" as="geometry">
            <mxPoint x="730" y="379" as="sourcePoint" />
            <mxPoint x="970" y="330" as="targetPoint" />
          </mxGeometry>
        </mxCell>
        <mxCell id="bPnjTXjafhnAm1Io0pNq-86" value="" style="endArrow=none;html=1;rounded=0;exitX=1;exitY=1;exitDx=0;exitDy=0;entryX=0;entryY=1;entryDx=0;entryDy=0;entryPerimeter=0;" edge="1" parent="1" source="bPnjTXjafhnAm1Io0pNq-53" target="bPnjTXjafhnAm1Io0pNq-4">
          <mxGeometry width="50" height="50" relative="1" as="geometry">
            <mxPoint x="800" y="339" as="sourcePoint" />
            <mxPoint x="1040" y="290" as="targetPoint" />
          </mxGeometry>
        </mxCell>
        <mxCell id="bPnjTXjafhnAm1Io0pNq-88" value="" style="endArrow=none;html=1;rounded=0;exitX=1;exitY=0;exitDx=0;exitDy=0;entryX=0;entryY=1;entryDx=0;entryDy=0;entryPerimeter=0;" edge="1" parent="1" source="bPnjTXjafhnAm1Io0pNq-51" target="bPnjTXjafhnAm1Io0pNq-4">
          <mxGeometry width="50" height="50" relative="1" as="geometry">
            <mxPoint x="860" y="339" as="sourcePoint" />
            <mxPoint x="770" y="470" as="targetPoint" />
          </mxGeometry>
        </mxCell>
        <mxCell id="bPnjTXjafhnAm1Io0pNq-90" value="" style="endArrow=none;html=1;rounded=0;entryX=0;entryY=1;entryDx=0;entryDy=0;entryPerimeter=0;exitX=1;exitY=1;exitDx=0;exitDy=0;" edge="1" parent="1" source="bPnjTXjafhnAm1Io0pNq-52" target="bPnjTXjafhnAm1Io0pNq-4">
          <mxGeometry width="50" height="50" relative="1" as="geometry">
            <mxPoint x="780" y="359" as="sourcePoint" />
            <mxPoint x="770" y="460" as="targetPoint" />
          </mxGeometry>
        </mxCell>
        <mxCell id="bPnjTXjafhnAm1Io0pNq-103" value="" style="endArrow=none;html=1;rounded=0;exitX=0.754;exitY=0.942;exitDx=0;exitDy=0;exitPerimeter=0;entryX=0;entryY=1;entryDx=0;entryDy=0;entryPerimeter=0;" edge="1" parent="1" source="bPnjTXjafhnAm1Io0pNq-54" target="bPnjTXjafhnAm1Io0pNq-4">
          <mxGeometry width="50" height="50" relative="1" as="geometry">
            <mxPoint x="630" y="347" as="sourcePoint" />
            <mxPoint x="1350" y="465" as="targetPoint" />
          </mxGeometry>
        </mxCell>
        <mxCell id="bPnjTXjafhnAm1Io0pNq-53" value="generate_certificate()" style="ellipse;whiteSpace=wrap;html=1;" vertex="1" parent="1">
          <mxGeometry x="1050" y="310" width="120" height="50" as="geometry" />
        </mxCell>
        <mxCell id="bPnjTXjafhnAm1Io0pNq-108" value="" style="endArrow=none;html=1;rounded=0;exitX=1;exitY=0.5;exitDx=0;exitDy=0;entryX=0;entryY=1;entryDx=0;entryDy=0;entryPerimeter=0;" edge="1" parent="1" source="bPnjTXjafhnAm1Io0pNq-55" target="bPnjTXjafhnAm1Io0pNq-4">
          <mxGeometry width="50" height="50" relative="1" as="geometry">
            <mxPoint x="730" y="565" as="sourcePoint" />
            <mxPoint x="1140" y="453" as="targetPoint" />
          </mxGeometry>
        </mxCell>
        <mxCell id="bPnjTXjafhnAm1Io0pNq-84" value="&amp;nbsp;upload_lessons();" style="ellipse;whiteSpace=wrap;html=1;" vertex="1" parent="1">
          <mxGeometry x="1050" y="470" width="120" height="50" as="geometry" />
        </mxCell>
        <mxCell id="bPnjTXjafhnAm1Io0pNq-125" value="Payment(Student s)" style="ellipse;whiteSpace=wrap;html=1;" vertex="1" parent="1">
          <mxGeometry x="340" y="190" width="120" height="50" as="geometry" />
        </mxCell>
        <mxCell id="bPnjTXjafhnAm1Io0pNq-127" value="" style="endArrow=none;dashed=1;html=1;rounded=0;exitX=0;exitY=0;exitDx=0;exitDy=0;" edge="1" parent="1" source="bPnjTXjafhnAm1Io0pNq-44" target="bPnjTXjafhnAm1Io0pNq-125">
          <mxGeometry width="50" height="50" relative="1" as="geometry">
            <mxPoint x="392" y="340" as="sourcePoint" />
            <mxPoint x="350" y="584" as="targetPoint" />
          </mxGeometry>
        </mxCell>
        <mxCell id="bPnjTXjafhnAm1Io0pNq-128" value="Include" style="edgeLabel;html=1;align=center;verticalAlign=middle;resizable=0;points=[];" vertex="1" connectable="0" parent="bPnjTXjafhnAm1Io0pNq-127">
          <mxGeometry x="0.1044" y="-4" relative="1" as="geometry">
            <mxPoint as="offset" />
          </mxGeometry>
        </mxCell>
        <object label="Admin" Admin="Admin&#xa;" id="bPnjTXjafhnAm1Io0pNq-129">
          <mxCell style="shape=umlActor;verticalLabelPosition=bottom;verticalAlign=top;html=1;outlineConnect=0;rotation=0;" vertex="1" parent="1">
            <mxGeometry x="620" y="-280" width="30" height="70" as="geometry" />
          </mxCell>
        </object>
        <mxCell id="bPnjTXjafhnAm1Io0pNq-130" value="CourseService" style="ellipse;whiteSpace=wrap;html=1;" vertex="1" parent="1">
          <mxGeometry x="220" y="-120" width="120" height="50" as="geometry" />
        </mxCell>
        <mxCell id="bPnjTXjafhnAm1Io0pNq-131" value="UserService&amp;nbsp;" style="ellipse;whiteSpace=wrap;html=1;" vertex="1" parent="1">
          <mxGeometry x="350" y="-120" width="120" height="50" as="geometry" />
        </mxCell>
        <mxCell id="bPnjTXjafhnAm1Io0pNq-132" value="" style="endArrow=none;html=1;rounded=0;exitX=0;exitY=1;exitDx=0;exitDy=0;exitPerimeter=0;entryX=0.5;entryY=0;entryDx=0;entryDy=0;" edge="1" parent="1" source="bPnjTXjafhnAm1Io0pNq-129" target="bPnjTXjafhnAm1Io0pNq-130">
          <mxGeometry width="50" height="50" relative="1" as="geometry">
            <mxPoint x="615" y="108" as="sourcePoint" />
            <mxPoint x="755" y="-172" as="targetPoint" />
          </mxGeometry>
        </mxCell>
        <mxCell id="bPnjTXjafhnAm1Io0pNq-133" value="" style="endArrow=none;html=1;rounded=0;exitX=0;exitY=1;exitDx=0;exitDy=0;exitPerimeter=0;" edge="1" parent="1" source="bPnjTXjafhnAm1Io0pNq-129" target="bPnjTXjafhnAm1Io0pNq-131">
          <mxGeometry width="50" height="50" relative="1" as="geometry">
            <mxPoint x="605" y="-2" as="sourcePoint" />
            <mxPoint x="745" y="-282" as="targetPoint" />
          </mxGeometry>
        </mxCell>
        <mxCell id="bPnjTXjafhnAm1Io0pNq-148" value="" style="endArrow=none;html=1;rounded=0;entryX=0.5;entryY=0;entryDx=0;entryDy=0;exitX=0;exitY=1;exitDx=0;exitDy=0;exitPerimeter=0;" edge="1" parent="1" source="bPnjTXjafhnAm1Io0pNq-129" target="bPnjTXjafhnAm1Io0pNq-125">
          <mxGeometry width="50" height="50" relative="1" as="geometry">
            <mxPoint x="530" y="-180" as="sourcePoint" />
            <mxPoint x="492" y="209" as="targetPoint" />
          </mxGeometry>
        </mxCell>
        <mxCell id="bPnjTXjafhnAm1Io0pNq-149" style="edgeStyle=orthogonalEdgeStyle;rounded=0;orthogonalLoop=1;jettySize=auto;html=1;exitX=0.5;exitY=1;exitDx=0;exitDy=0;" edge="1" parent="1" source="bPnjTXjafhnAm1Io0pNq-125" target="bPnjTXjafhnAm1Io0pNq-125">
          <mxGeometry relative="1" as="geometry" />
        </mxCell>
      </root>
    </mxGraphModel>
  </diagram>
</mxfile>
